<svg width="512" height="512" viewBox="0 0 512 512" fill="none" xmlns="http://www.w3.org/2000/svg">
  <!-- Background Circle -->
  <circle cx="256" cy="256" r="256" fill="#f97316"/>
  
  <!-- Food Bowl -->
  <circle cx="256" cy="280" r="120" fill="#ffffff" stroke="#ea580c" stroke-width="8"/>
  
  <!-- Food Items -->
  <!-- Main dish -->
  <circle cx="230" cy="260" r="25" fill="#fbbf24"/>
  <circle cx="280" cy="270" r="20" fill="#ef4444"/>
  <circle cx="250" cy="300" r="18" fill="#22c55e"/>
  
  <!-- Steam lines -->
  <path d="M200 180 Q205 160 200 140" stroke="#ffffff" stroke-width="6" stroke-linecap="round" fill="none"/>
  <path d="M230 170 Q235 150 230 130" stroke="#ffffff" stroke-width="6" stroke-linecap="round" fill="none"/>
  <path d="M280 170 Q285 150 280 130" stroke="#ffffff" stroke-width="6" stroke-linecap="round" fill="none"/>
  <path d="M310 180 Q315 160 310 140" stroke="#ffffff" stroke-width="6" stroke-linecap="round" fill="none"/>
  
  <!-- Fork and Spoon -->
  <!-- Fork -->
  <rect x="150" y="350" width="8" height="80" fill="#ffffff" rx="4"/>
  <rect x="145" y="350" width="4" height="20" fill="#ffffff" rx="2"/>
  <rect x="151" y="350" width="4" height="20" fill="#ffffff" rx="2"/>
  <rect x="157" y="350" width="4" height="20" fill="#ffffff" rx="2"/>
  
  <!-- Spoon -->
  <rect x="350" y="370" width="8" height="60" fill="#ffffff" rx="4"/>
  <ellipse cx="354" cy="360" rx="12" ry="18" fill="#ffffff"/>
  
  <!-- Decorative elements -->
  <circle cx="180" cy="200" r="8" fill="#ffffff" opacity="0.7"/>
  <circle cx="330" cy="210" r="6" fill="#ffffff" opacity="0.7"/>
  <circle cx="160" cy="320" r="5" fill="#ffffff" opacity="0.7"/>
  <circle cx="350" cy="320" r="7" fill="#ffffff" opacity="0.7"/>
</svg>
